<svg xmlns="http://www.w3.org/2000/svg" viewBox="0 0 2048 2048" style="enable-background:new 0 0 2048 2048" xml:space="preserve"><path style="fill:#e1efff" d="M583.693 1185.032V276.645c0-11.402 9.243-20.645 20.645-20.645h839.323c11.402 0 20.645 9.243 20.645 20.645v908.387c0 11.402-9.243 20.645-20.645 20.645H604.339c-11.402 0-20.646-9.243-20.646-20.645z"/><path style="fill:#b0ccdd" d="M1360.825 650.571H687.176c-13.682 0-24.774-11.092-24.774-24.774s11.092-24.774 24.774-24.774h673.649c13.682 0 24.774 11.092 24.774 24.774s-11.092 24.774-24.774 24.774zM1360.825 527.305H687.176c-13.682 0-24.774-11.092-24.774-24.774s11.092-24.774 24.774-24.774h673.649c13.682 0 24.774 11.092 24.774 24.774s-11.092 24.774-24.774 24.774zM1360.825 404.04H687.176c-13.682 0-24.774-11.092-24.774-24.774s11.092-24.774 24.774-24.774h673.649c13.682 0 24.774 11.092 24.774 24.774s-11.092 24.774-24.774 24.774z"/><g><path style="fill:#b0ccdd" d="M1360.825 773.836H1095.13c-13.682 0-24.774-11.092-24.774-24.774s11.092-24.774 24.774-24.774h265.695c13.682 0 24.774 11.092 24.774 24.774 0 13.683-11.092 24.774-24.774 24.774z"/></g><g><path style="fill:#f7e07f" d="M1738.811 1792H309.189c-22.091 0-40-17.909-40-40V872.835h1469.622c22.091 0 40 17.909 40 40V1752c0 22.091-17.909 40-40 40z"/><path style="fill:#ebcd6d" d="M885.959 724.206H316.153c-25.938 0-46.964 21.027-46.964 46.964v101.665h766.977L885.959 724.206z"/></g></svg>